<svg width="1920" height="1080" viewBox="0 0 1920 1080" xmlns="http://www.w3.org/2000/svg"><rect width="1920" height="1080" fill="#c9bee6"/><path d="M 0,1080 C 0,1080 0,216 0,216 C 62.438512518409425,260.01417525773195 124.87702503681885,304.0283505154639 233,286 C 341.12297496318115,267.9716494845361 494.93041237113414,187.9007731958763 596,164 C 697.0695876288659,140.0992268041237 745.4013254786448,172.36855670103094 826,205 C 906.5986745213552,237.63144329896906 1019.464285714286,270.625 1115,273 C 1210.535714285714,275.375 1288.7415316642118,247.13144329896906 1382,251 C 1475.2584683357882,254.86855670103094 1583.569587628866,290.84922680412376 1686,272 C 1788.430412371134,253.15077319587627 1884.9801178203238,179.47164948453607 1923,161 C 1961.0198821796762,142.52835051546393 1940.509941089838,179.26417525773195 1920,216 C 1920,216 1920,1080 1920,1080 Z" fill="#f0f6ff" opacity="0.12"/><path d="M 0,1080 C 0,1080 0,432 0,432 C 94.59057437407952,401.99484536082474 189.18114874815905,371.9896907216495 285,371 C 380.81885125184095,370.0103092783505 477.86597938144337,398.0360824742268 563,411 C 648.1340206185566,423.9639175257732 721.3549337260677,421.86597938144325 810,399 C 898.6450662739323,376.13402061855675 1002.7142857142858,332.49999999999994 1095,362 C 1187.2857142857142,391.50000000000006 1267.7879234167895,494.13402061855675 1353,505 C 1438.2120765832105,515.8659793814433 1528.1340206185569,434.9639175257731 1640,402 C 1751.8659793814431,369.0360824742269 1885.6759941089836,384.0103092783505 1936,397 C 1986.3240058910164,409.9896907216495 1953.1620029455082,420.99484536082474 1920,432 C 1920,432 1920,1080 1920,1080 Z" fill="#f0f6ff" opacity="0.24"/><path d="M 0,1080 C 0,1080 0,648 0,648 C 75.7323269513991,623.0660898379971 151.4646539027982,598.1321796759942 237,577 C 322.5353460972018,555.8678203240058 417.8737113402062,538.5373711340205 527,575 C 636.1262886597938,611.4626288659795 759.040500736377,701.7183357879235 859,694 C 958.959499263623,686.2816642120765 1035.9642857142858,580.5892857142858 1130,579 C 1224.0357142857142,577.4107142857142 1335.10235640648,679.9245213549337 1407,715 C 1478.89764359352,750.0754786450663 1511.6262886597935,717.7126288659794 1603,701 C 1694.3737113402065,684.2873711340206 1844.3924889543448,683.2249631811487 1907,677 C 1969.6075110456552,670.7750368188513 1944.8037555228275,659.3875184094256 1920,648 C 1920,648 1920,1080 1920,1080 Z" fill="#f0f6ff" opacity="0.36"/><path d="M 0,1080 C 0,1080 0,864 0,864 C 83.33413107511043,833.9116347569957 166.66826215022087,803.8232695139912 264,793 C 361.33173784977913,782.1767304860088 472.6610824742269,790.6185567010309 565,811 C 657.3389175257731,831.3814432989691 730.6874079528718,863.7025036818852 821,873 C 911.3125920471282,882.2974963181148 1018.5892857142858,868.5714285714284 1109,872 C 1199.4107142857142,875.4285714285716 1272.9554491899855,896.0117820324008 1352,892 C 1431.0445508100145,887.9882179675992 1515.5889175257728,859.381443298969 1633,858 C 1750.4110824742272,856.618556701031 1900.6888807069222,882.4624447717232 1954,888 C 2007.3111192930778,893.5375552282768 1963.655559646539,878.7687776141383 1920,864 C 1920,864 1920,1080 1920,1080 Z" fill="#f0f6ff" opacity="0.48"/></svg>