<svg width="1080" height="1080" viewBox="0 0 1080 1080" xmlns="http://www.w3.org/2000/svg"><rect width="1080" height="1080" fill="#c9bee6"/><path d="M 0,1080 C 0,1080 0,180 0,180 C 66.7897435897436,180.88717948717948 133.5794871794872,181.774358974359 169,199 C 204.4205128205128,216.225641025641 208.47179487179483,249.7897435897436 308,237 C 407.5282051282052,224.2102564102564 602.5333333333333,165.06666666666666 656,145 C 709.4666666666667,124.93333333333335 621.3948717948717,143.94358974358977 655,161 C 688.6051282051283,178.05641025641023 843.8871794871795,193.15897435897435 935,196 C 1026.1128205128205,198.84102564102565 1053.0564102564103,189.42051282051284 1080,180 C 1080,180 1080,1080 1080,1080 Z" fill="#fafafa" opacity="0.09999999999999999"/><path d="M 0,1080 C 0,1080 0,360 0,360 C 87.3025641025641,403.3282051282051 174.6051282051282,446.65641025641025 290,426 C 405.3948717948718,405.34358974358975 548.8820512820512,320.7025641025641 526,314 C 503.1179487179488,307.2974358974359 313.86666666666673,378.5333333333333 372,391 C 430.13333333333327,403.4666666666667 735.6512820512821,357.16410256410256 868,338 C 1000.3487179487179,318.83589743589744 959.5282051282051,326.8102564102564 966,335 C 972.4717948717949,343.1897435897436 1026.2358974358974,351.5948717948718 1080,360 C 1080,360 1080,1080 1080,1080 Z" fill="#fafafa" opacity="0.19999999999999998"/><path d="M 0,1080 C 0,1080 0,540 0,540 C 94.80000000000001,545.4615384615385 189.60000000000002,550.9230769230769 240,539 C 290.4,527.0769230769231 296.4,497.7692307692308 306,479 C 315.6,460.2307692307692 328.8,452.00000000000006 375,473 C 421.2,493.99999999999994 500.4,544.2307692307693 597,571 C 693.6,597.7692307692307 807.6,601.0769230769231 891,592 C 974.4,582.9230769230769 1027.2,561.4615384615385 1080,540 C 1080,540 1080,1080 1080,1080 Z" fill="#fafafa" opacity="0.3"/><path d="M 0,1080 C 0,1080 0,720 0,720 C 116.54358974358976,724.8076923076924 233.08717948717953,729.6153846153846 325,727 C 416.9128205128205,724.3846153846154 484.1948717948718,714.3461538461538 518,698 C 551.8051282051282,681.6538461538462 552.1333333333333,659 585,662 C 617.8666666666667,665 683.2717948717949,693.6538461538462 701,697 C 718.7282051282051,700.3461538461538 688.7794871794872,678.3846153846155 744,678 C 799.2205128205128,677.6153846153845 939.6102564102564,698.8076923076923 1080,720 C 1080,720 1080,1080 1080,1080 Z" fill="#fafafa" opacity="0.39999999999999997"/><path d="M 0,1080 C 0,1080 0,900 0,900 C 15.471794871794856,917.5948717948718 30.943589743589712,935.1897435897436 131,926 C 231.0564102564103,916.8102564102564 415.697435897436,880.8358974358976 521,878 C 626.302564102564,875.1641025641024 652.2666666666665,905.4666666666668 652,922 C 651.7333333333335,938.5333333333332 625.2358974358975,941.2974358974358 653,938 C 680.7641025641025,934.7025641025642 762.7897435897436,925.3435897435897 843,918 C 923.2102564102564,910.6564102564103 1001.6051282051283,905.3282051282051 1080,900 C 1080,900 1080,1080 1080,1080 Z" fill="#fafafa" opacity="0.49999999999999994"/></svg>